<?xml version="1.0" standalone="no"?>
<!DOCTYPE svg PUBLIC "-//W3C//DTD SVG 20010904//EN"
 "http://www.w3.org/TR/2001/REC-SVG-20010904/DTD/svg10.dtd">
<svg version="1.0" xmlns="http://www.w3.org/2000/svg"
 width="3335.000000pt" height="3329.000000pt" viewBox="0 0 3335.000000 3329.000000"
 preserveAspectRatio="xMidYMid meet">

<g transform="translate(0.000000,3329.000000) scale(0.100000,-0.100000)"
fill="#000000" stroke="none">
<path d="M16125 33188 c-484 -16 -576 -22 -1055 -68 -479 -47 -573 -59 -1075
-142 -497 -81 -601 -102 -1080 -214 -464 -108 -594 -142 -1045 -279 -438 -134
-590 -185 -1020 -347 -420 -158 -587 -227 -990 -409 -1334 -604 -2544 -1355
-3675 -2284 -304 -249 -499 -419 -755 -658 -427 -398 -478 -449 -877 -877
-705 -756 -1347 -1597 -1914 -2507 -241 -387 -330 -542 -548 -950 -216 -404
-298 -571 -480 -973 -182 -403 -251 -570 -409 -990 -162 -430 -213 -582 -347
-1020 -137 -451 -171 -581 -279 -1045 -112 -479 -133 -583 -214 -1080 -83
-502 -95 -596 -142 -1075 -47 -484 -52 -567 -68 -1062 -17 -511 -17 -565 0
-1075 16 -496 21 -579 68 -1063 47 -479 59 -573 142 -1075 81 -497 102 -601
214 -1080 108 -464 142 -594 279 -1045 134 -438 185 -590 347 -1020 158 -420
227 -587 409 -990 604 -1334 1356 -2544 2284 -3675 1153 -1405 2497 -2584
4042 -3546 387 -241 542 -330 950 -548 404 -216 571 -298 973 -480 403 -182
570 -251 990 -409 430 -162 582 -213 1020 -347 451 -137 581 -171 1045 -279
479 -112 583 -133 1080 -214 502 -83 596 -95 1075 -142 484 -47 567 -52 1063
-68 510 -17 564 -17 1075 0 495 16 578 21 1062 68 479 47 573 59 1075 142 497
81 601 102 1080 214 464 108 594 142 1045 279 438 134 590 185 1020 347 420
158 587 227 990 409 1334 604 2544 1356 3675 2284 1405 1153 2584 2497 3546
4042 241 387 330 542 548 950 216 404 298 571 480 973 182 403 251 570 409
990 162 430 213 582 347 1020 137 451 171 581 279 1045 112 479 133 583 214
1080 83 502 95 596 142 1075 47 484 52 567 68 1063 17 510 17 564 0 1075 -16
495 -21 578 -68 1062 -47 479 -59 573 -142 1075 -81 497 -102 601 -214 1080
-108 464 -142 594 -279 1045 -134 438 -185 590 -347 1020 -158 420 -227 587
-409 990 -604 1334 -1356 2544 -2284 3675 -1153 1405 -2497 2584 -4042 3546
-387 241 -542 330 -950 548 -404 216 -571 298 -973 480 -403 182 -570 251
-990 409 -437 165 -576 212 -1035 351 -466 141 -593 174 -1050 280 -450 105
-590 132 -1035 206 -465 77 -568 91 -1061 140 -500 50 -585 55 -1020 69 -261
9 -510 17 -554 19 -44 2 -318 -5 -610 -15z m385 -2052 l0 -1754 -222 -6 c-344
-11 -513 -22 -908 -61 -473 -47 -1113 -152 -1550 -255 -162 -38 -297 -66 -301
-62 -8 10 -899 3343 -899 3365 0 9 2 17 5 17 2 0 197 45 432 100 354 83 516
115 938 186 461 76 562 90 1055 139 523 52 812 70 1393 84 l57 1 0 -1754z
m4947 1027 c923 -279 1936 -698 2783 -1151 217 -116 396 -215 398 -220 3 -11
-1712 -2988 -1738 -3015 -16 -17 -30 -11 -308 138 -626 336 -1472 687 -2157
895 -276 84 -320 100 -318 116 2 24 892 3344 899 3356 3 4 9 8 15 8 5 0 197
-57 426 -127z m-13019 -1545 c8 -11 1700 -2938 1731 -2996 10 -19 -8 -33 -282
-203 -601 -374 -1305 -913 -1825 -1397 -133 -125 -249 -230 -257 -235 -12 -6
-36 10 -93 61 -124 113 -2392 2387 -2392 2399 0 6 150 151 333 321 702 655
1566 1318 2382 1829 203 127 375 232 381 232 6 1 16 -5 22 -11z m8802 -1559
c427 -16 986 -75 1463 -155 2152 -359 4151 -1266 5833 -2646 164 -135 335
-278 379 -319 442 -408 618 -584 1024 -1024 41 -44 184 -215 319 -379 2631
-3206 3483 -7505 2277 -11477 -395 -1302 -994 -2512 -1788 -3617 -231 -321
-632 -827 -808 -1017 -322 -349 -528 -560 -734 -754 -329 -309 -370 -345 -692
-608 -377 -309 -867 -660 -1283 -919 -181 -112 -331 -204 -334 -204 -3 0 -15
18 -26 39 -40 79 -406 532 -676 836 -302 341 -488 496 -784 653 -457 241 -962
373 -1766 462 -908 99 -1782 129 -2384 80 -363 -30 -1080 -145 -1519 -245
-401 -91 -755 -213 -1276 -440 -110 -48 -339 -147 -510 -220 -776 -332 -1034
-491 -1405 -864 -195 -196 -259 -278 -528 -676 -112 -165 -207 -301 -211 -303
-5 -2 -149 60 -319 137 -671 303 -1404 730 -2046 1191 -310 223 -771 587 -986
779 -248 223 -589 554 -775 752 -337 360 -346 370 -603 683 -2630 3206 -3483
7505 -2277 11477 395 1302 994 2512 1788 3617 231 321 632 826 808 1017 406
440 582 616 1024 1024 190 176 696 577 1017 808 1971 1417 4317 2222 6753
2317 363 15 544 14 1045 -5z m11328 -1371 c660 -707 1325 -1575 1831 -2388
164 -264 231 -378 225 -388 -7 -11 -2864 -1668 -2996 -1738 l-27 -14 -182 293
c-373 600 -913 1306 -1397 1825 -125 134 -231 250 -235 258 -6 11 14 39 71
102 129 140 2377 2382 2389 2382 6 0 151 -150 321 -332z m-24516 -3909 c821
-474 1501 -869 1511 -879 17 -16 11 -30 -138 -308 -336 -626 -687 -1472 -895
-2157 -84 -276 -100 -320 -116 -318 -39 4 -3349 895 -3358 903 -5 6 42 179
119 432 279 920 696 1930 1142 2768 113 212 210 393 215 403 5 9 13 17 18 17
5 0 681 -388 1502 -861z m28328 -3074 c0 -2 45 -197 100 -432 83 -354 115
-516 186 -938 77 -463 90 -560 139 -1055 44 -442 56 -606 64 -870 6 -179 13
-382 17 -452 l6 -128 -1755 0 -1755 0 -6 223 c-25 802 -136 1681 -306 2412
-38 165 -71 311 -72 324 -3 23 28 31 1667 471 919 247 1680 449 1693 449 12 1
22 -1 22 -4z m-28416 -4417 c11 -344 22 -513 61 -908 47 -473 152 -1113 255
-1550 38 -162 66 -297 62 -301 -10 -8 -3343 -899 -3364 -899 -10 0 -18 2 -18
5 0 2 -45 197 -100 432 -83 354 -115 516 -186 938 -77 463 -90 560 -139 1055
-44 442 -56 606 -64 870 -6 179 -13 382 -17 453 l-6 127 1755 0 1755 0 6 -222z
m26646 -3513 c916 -245 1669 -450 1674 -455 5 -6 -42 -179 -119 -432 -281
-928 -699 -1939 -1153 -2788 -116 -217 -215 -396 -220 -398 -11 -3 -2988 1712
-3015 1738 -17 16 -11 30 138 308 335 624 694 1491 895 2157 50 165 93 306 95
313 3 7 13 11 22 8 10 -3 767 -206 1683 -451z m-24689 -2887 c373 -601 913
-1307 1397 -1826 125 -134 231 -250 235 -258 6 -11 -14 -39 -72 -102 -129
-141 -2376 -2382 -2388 -2382 -6 0 -151 150 -321 333 -660 706 -1325 1574
-1831 2387 -164 264 -231 378 -225 388 7 10 3009 1751 3021 1752 1 0 84 -132
184 -292z m12774 -2153 c449 -27 997 -80 1337 -131 621 -92 1129 -271 1490
-524 104 -73 379 -341 524 -510 301 -351 604 -729 604 -753 0 -13 -229 -137
-252 -137 -8 0 -40 37 -71 83 -299 437 -715 816 -1205 1095 -300 171 -633 270
-1102 326 -145 18 -419 42 -570 51 -58 3 -235 17 -395 30 -769 64 -1244 66
-1850 9 -379 -36 -1092 -138 -1355 -194 -238 -51 -820 -198 -990 -251 -313
-97 -629 -225 -1104 -448 -444 -208 -660 -330 -785 -447 -130 -121 -195 -237
-304 -555 -60 -172 -135 -363 -154 -388 -3 -5 -415 149 -427 159 -10 10 338
528 443 660 97 121 268 298 391 404 283 246 496 362 1270 696 724 313 935 398
1172 470 534 165 1495 334 2098 370 201 12 934 3 1235 -15z m8097 -1403 c675
-675 1228 -1233 1228 -1239 0 -6 -143 -145 -317 -308 -700 -655 -1592 -1339
-2403 -1844 -264 -164 -378 -231 -388 -225 -11 7 -1668 2864 -1738 2996 l-14
27 293 182 c407 253 878 593 1285 928 180 148 386 324 457 391 256 241 345
320 357 320 7 0 565 -553 1240 -1228z m-8187 688 c94 -6 271 -19 395 -30 124
-11 331 -26 460 -35 682 -45 1077 -120 1379 -261 299 -140 709 -443 949 -702
148 -160 366 -443 351 -456 -2 -2 -166 -76 -364 -166 -1213 -548 -2539 -904
-3850 -1035 -503 -50 -1099 -75 -1477 -63 -761 25 -1185 65 -1809 168 -229 38
-454 78 -500 89 -46 11 -212 50 -369 86 -162 37 -439 112 -641 173 l-356 107
40 85 c21 47 70 177 109 290 38 113 85 239 105 280 45 93 145 200 258 275 187
124 812 422 1270 605 332 132 1094 337 1540 414 453 78 1149 161 1562 186 174
10 705 5 948 -10z m-7856 -1596 c625 -335 1472 -686 2156 -894 276 -84 320
-100 318 -116 -4 -39 -895 -3349 -903 -3358 -6 -5 -179 42 -432 119 -928 281
-1939 699 -2788 1153 -217 116 -396 215 -398 220 -3 10 1710 2984 1736 3015 8
9 16 17 18 17 1 0 133 -70 293 -156z m9507 -2734 c244 -910 447 -1672 450
-1692 4 -21 4 -38 1 -38 -4 0 -199 -45 -434 -100 -354 -83 -516 -115 -938
-186 -463 -77 -560 -90 -1055 -139 -442 -44 -606 -56 -870 -64 -179 -6 -382
-13 -452 -17 l-128 -6 0 1755 0 1755 218 6 c346 11 523 23 912 61 477 47 1117
152 1545 254 160 38 294 68 299 67 5 -1 208 -746 452 -1656z"/>
<path d="M17330 27929 c-657 -32 -1570 -190 -2265 -390 -230 -67 -886 -273
-1095 -344 -566 -194 -991 -399 -1368 -662 -287 -200 -528 -416 -661 -591
-230 -304 -433 -832 -525 -1367 -54 -316 -63 -710 -30 -1371 l6 -130 -133 -49
c-574 -207 -961 -523 -1093 -893 -65 -183 -43 -417 59 -627 74 -155 175 -275
400 -475 261 -232 637 -504 835 -605 28 -14 50 -30 50 -35 0 -6 -14 -74 -30
-153 -52 -243 -130 -687 -130 -735 1 -29 10 -64 24 -92 l24 -45 -45 -63 c-189
-264 -343 -984 -312 -1462 29 -457 116 -728 428 -1335 145 -282 246 -443 386
-617 25 -31 42 -59 37 -62 -5 -3 -63 -25 -129 -50 -189 -70 -243 -95 -318
-144 -94 -62 -298 -227 -501 -403 -120 -105 -203 -167 -301 -227 -176 -108
-227 -148 -348 -273 -129 -134 -263 -333 -347 -514 l-23 -50 -5 2495 c-5 1903
-9 2510 -18 2557 -30 151 -76 248 -150 315 -52 47 -219 130 -336 168 -170 54
-200 55 -1726 55 l-1395 0 -120 -62 c-127 -65 -149 -83 -212 -178 -61 -92 -69
-111 -89 -235 -18 -111 -19 -212 -19 -2770 0 -2959 -6 -2700 68 -2861 53 -113
164 -212 336 -298 108 -54 292 -135 360 -159 41 -14 181 -16 1215 -19 1238 -4
1425 0 1530 36 90 32 180 86 249 151 52 48 73 78 119 172 31 62 75 161 98 220
23 59 45 110 50 113 5 3 23 -20 39 -52 35 -71 207 -241 326 -325 192 -134 518
-315 845 -469 210 -98 533 -239 550 -239 24 0 19 -34 -20 -133 l-41 -106 -127
-117 c-308 -285 -435 -422 -484 -519 -47 -93 -110 -248 -153 -379 -142 -428
-184 -819 -119 -1106 28 -126 172 -392 299 -555 89 -115 257 -271 352 -328
180 -108 324 -153 539 -167 342 -23 634 23 2049 320 363 77 765 161 894 187
l235 47 79 -84 c43 -47 148 -164 232 -260 166 -190 413 -438 485 -486 184
-124 464 -217 936 -313 550 -111 900 -148 1223 -131 655 35 1313 138 1636 255
149 54 211 93 399 255 206 177 333 307 410 417 32 46 63 83 70 83 7 0 94 -29
193 -64 411 -147 886 -293 1168 -361 225 -55 394 -82 640 -105 127 -11 261
-25 298 -31 270 -37 514 -31 652 18 283 101 564 395 653 684 46 150 48 355 3
542 -39 162 -69 240 -283 742 -47 110 -98 232 -113 272 -14 39 -37 82 -51 96
-22 22 -27 47 -59 273 -20 137 -46 312 -60 389 -30 178 -52 432 -37 447 6 6
75 28 154 50 271 75 396 145 574 322 172 172 403 485 499 676 96 193 119 353
80 555 -18 89 -78 240 -165 409 -119 236 -209 387 -305 514 -87 116 -338 364
-451 447 -45 33 -127 94 -184 135 -62 45 -136 111 -184 165 -155 171 -251 267
-311 310 -117 84 -317 168 -498 211 -63 14 -76 21 -71 33 180 417 215 1037
103 1813 -31 220 -93 404 -202 603 l-55 100 25 29 c53 63 57 79 55 251 -1 103
4 194 14 255 15 96 109 459 122 472 4 3 95 29 202 58 587 154 945 322 1197
564 198 188 288 362 313 596 23 233 -33 463 -200 805 -105 215 -170 307 -344
481 -149 148 -285 259 -470 379 -47 31 -86 62 -86 69 0 7 7 35 14 62 81 272
175 667 206 856 64 394 40 666 -84 977 -178 441 -412 736 -886 1115 -228 183
-746 581 -926 713 -276 201 -605 401 -934 567 -533 270 -1211 497 -1816 610
-348 65 -657 114 -839 135 -170 20 -495 42 -560 39 -16 0 -104 -5 -195 -9z
m640 -414 c389 -42 1010 -156 1369 -251 373 -99 877 -287 1194 -445 163 -82
486 -265 622 -354 259 -168 1127 -828 1397 -1062 228 -197 388 -405 509 -658
202 -424 198 -685 -23 -1512 l-51 -191 -81 35 c-119 51 -578 213 -756 267
-175 53 -969 252 -1162 291 -171 34 -294 50 -678 85 -179 17 -453 44 -610 60
-639 67 -956 82 -1665 83 -688 0 -1275 -26 -1885 -83 -470 -44 -814 -68 -1115
-80 -837 -32 -1173 -55 -1605 -110 -419 -54 -751 -130 -1401 -323 l-246 -73
-6 126 c-16 306 -19 710 -8 870 34 464 179 982 374 1340 98 179 257 352 487
531 532 414 926 596 2030 941 624 194 880 262 1310 347 511 100 893 153 1350
185 113 8 510 -4 650 -19z m475 -4060 c497 -9 692 -21 1210 -75 154 -16 428
-43 608 -60 532 -49 561 -54 1214 -216 478 -118 622 -160 913 -264 396 -141
498 -186 570 -255 45 -42 66 -55 108 -64 29 -6 57 -11 63 -11 5 0 51 -28 102
-62 400 -268 572 -464 722 -823 109 -261 126 -474 48 -628 -29 -59 -163 -201
-252 -267 -186 -140 -474 -259 -880 -365 l-174 -45 -36 27 c-170 130 -656 381
-1076 555 -332 138 -540 203 -1100 344 -225 57 -495 126 -600 154 -369 98
-633 141 -1040 171 -238 18 -1523 18 -1785 1 -107 -7 -418 -28 -690 -47 -781
-54 -1226 -83 -1620 -105 -618 -34 -936 -65 -1350 -131 -472 -75 -1030 -234
-1618 -461 -123 -48 -134 -50 -160 -37 -52 27 -361 237 -459 312 -241 185
-496 430 -560 538 -38 64 -73 190 -73 264 0 116 65 231 208 366 185 176 402
295 746 410 169 56 833 253 1086 322 682 187 1146 243 2420 292 384 15 696 37
1155 80 337 32 625 51 960 65 358 15 873 28 960 24 39 -2 210 -6 380 -9z m405
-2285 c412 -33 645 -77 1165 -218 121 -33 335 -88 475 -121 425 -102 677 -184
1025 -331 177 -75 692 -331 784 -390 76 -49 76 -23 -2 -310 -33 -121 -65 -266
-78 -355 -12 -82 -22 -151 -24 -153 -1 -1 -29 18 -61 44 -99 77 -185 122 -447
231 -139 58 -310 130 -382 160 -193 81 -361 143 -445 164 -87 22 -612 92 -815
110 -232 19 -609 15 -825 -10 -572 -66 -739 -116 -1030 -308 -83 -55 -131 -98
-231 -204 -70 -74 -139 -148 -153 -166 -56 -67 -196 -154 -346 -216 l-145 -59
-221 -5 c-260 -6 -341 5 -470 66 -96 46 -203 141 -263 234 -21 34 -66 88 -98
120 -53 52 -74 63 -218 123 -416 170 -624 238 -823 269 -158 25 -212 31 -747
85 -700 72 -1182 63 -1760 -31 -282 -46 -812 -154 -873 -178 -29 -12 -55 -21
-58 -21 -8 0 0 47 62 365 30 154 60 304 65 333 7 35 17 56 30 63 54 28 430
158 664 229 651 197 1163 275 2155 330 433 24 1152 70 1625 105 285 21 566 39
925 59 143 8 1413 -3 1540 -14z m-9675 -1749 c139 -16 317 -82 368 -138 48
-54 47 18 47 -2703 0 -1490 -4 -2560 -10 -2580 -12 -48 -73 -199 -118 -293
-43 -92 -104 -154 -177 -183 -48 -18 -92 -19 -1325 -19 l-1275 0 -144 64
c-226 101 -316 169 -347 261 -18 53 -19 152 -22 2660 -2 2386 -1 2613 14 2705
21 125 49 172 132 215 l57 30 1355 -4 c799 -3 1392 -9 1445 -15z m7723 -2045
c66 -18 115 -55 153 -115 39 -61 62 -139 100 -334 34 -182 68 -324 99 -411 11
-33 19 -60 18 -61 -2 -1 -167 -5 -367 -9 -345 -6 -363 -6 -356 11 50 128 89
315 125 613 23 193 39 252 76 291 32 34 68 37 152 15z m438 -1326 l162 0 31
-42 c56 -76 349 -367 408 -404 31 -20 85 -50 120 -66 86 -39 485 -171 608
-201 233 -58 494 -87 851 -94 331 -7 415 -1 899 67 193 27 438 61 545 75 369
49 574 101 845 217 241 103 376 188 540 341 l80 74 135 -27 c234 -48 371 -101
478 -184 29 -22 100 -96 158 -163 128 -149 209 -222 379 -343 369 -264 522
-446 752 -899 107 -211 136 -299 137 -411 0 -69 -5 -97 -26 -148 -36 -87 -112
-206 -254 -395 -227 -303 -328 -381 -580 -449 l-90 -25 -27 276 c-31 308 -32
372 -13 482 24 131 123 333 248 500 79 108 92 139 85 213 -5 54 -9 63 -54 108
-84 85 -178 91 -261 15 -77 -71 -260 -285 -322 -378 -153 -230 -197 -399 -187
-719 8 -255 41 -477 132 -880 59 -265 71 -339 95 -595 12 -121 30 -290 42
-375 48 -358 11 -531 -149 -700 -209 -223 -590 -327 -1086 -299 -260 15 -524
60 -1242 214 -1081 232 -1630 307 -2530 346 -309 13 -1310 7 -1605 -10 -1242
-73 -2000 -210 -3083 -557 -475 -152 -510 -159 -697 -129 -336 54 -771 245
-928 407 -197 203 -300 917 -173 1204 11 25 56 94 99 152 398 540 602 1031
579 1397 -13 201 -75 323 -257 506 -183 183 -359 293 -695 435 -170 71 -186
76 -225 69 -84 -16 -134 -76 -134 -161 0 -65 14 -86 116 -172 121 -102 395
-384 466 -479 33 -45 73 -108 89 -140 26 -54 28 -66 27 -178 0 -113 -34 -349
-52 -367 -4 -4 -83 26 -177 66 -577 248 -1054 511 -1253 692 -34 30 -62 60
-62 65 0 19 93 195 147 278 128 198 219 283 446 420 93 56 174 116 268 197
289 253 493 415 573 456 65 33 525 198 552 198 14 0 62 -15 107 -34 313 -128
767 -211 1217 -223 431 -11 821 38 1500 188 618 137 844 234 1110 478 l88 81
124 10 c207 18 486 29 627 24 74 -2 207 -4 297 -4z m-6025 -4483 c18 -256 94
-559 187 -742 43 -86 118 -190 173 -239 209 -188 615 -377 974 -453 115 -24
152 -27 320 -28 229 0 215 -4 750 185 516 182 832 279 1239 379 1242 307 2605
397 3816 251 559 -68 962 -151 1844 -380 932 -242 1250 -300 1636 -300 569 0
1001 181 1237 518 l51 72 67 -158 c198 -459 222 -691 94 -885 -46 -70 -186
-210 -251 -251 -111 -71 -243 -82 -531 -46 -87 11 -238 26 -336 35 -279 23
-356 36 -651 110 -390 97 -942 279 -1655 545 -476 178 -627 216 -1085 279
-473 65 -1335 108 -1969 98 -289 -4 -371 -9 -721 -46 -217 -22 -514 -52 -660
-66 -371 -36 -769 -109 -1995 -369 -668 -141 -1079 -223 -1305 -260 -668 -109
-896 -68 -1157 208 -97 102 -184 230 -254 371 -40 82 -51 116 -60 190 -29 228
31 582 154 911 63 166 70 184 76 179 2 -3 8 -51 12 -108z m5134 -1584 c154
-202 310 -327 524 -417 245 -103 448 -139 806 -140 326 -1 492 27 705 122 190
85 271 150 516 414 l99 107 115 -15 c293 -38 573 -111 858 -221 l73 -29 -30
-39 c-59 -81 -368 -364 -474 -434 -129 -87 -539 -177 -1067 -236 -378 -41
-486 -49 -720 -49 -274 0 -457 22 -905 110 -405 79 -691 162 -814 235 -94 56
-261 220 -453 444 l-146 170 39 8 c46 10 696 74 754 75 39 1 41 -1 120 -105z"/>
<path d="M15084 25941 c-37 -16 -64 -60 -64 -104 0 -22 18 -185 41 -361 53
-415 49 -476 -51 -681 -58 -121 -149 -218 -215 -231 -79 -14 -161 37 -234 146
-154 231 -251 535 -286 895 -9 88 -27 122 -72 142 -64 26 -126 -1 -151 -67
-17 -45 21 -335 68 -520 65 -257 217 -567 337 -686 111 -112 265 -162 393
-129 162 42 272 149 376 370 80 168 113 347 95 510 -27 242 -82 648 -90 663
-26 48 -98 74 -147 53z"/>
<path d="M13138 25810 c-45 -35 -53 -70 -35 -163 28 -143 81 -716 107 -1155
16 -275 24 -308 86 -337 27 -13 60 -13 225 -5 107 5 298 12 424 16 250 7 278
13 308 63 21 36 21 64 1 106 -31 67 -42 68 -432 55 -191 -6 -355 -12 -364 -14
-16 -4 -18 5 -18 68 0 85 -63 869 -85 1057 -33 279 -55 329 -150 329 -27 0
-51 -7 -67 -20z"/>
<path d="M18332 25814 c-12 -8 -37 -39 -56 -67 -44 -69 -137 -161 -209 -208
-54 -35 -141 -69 -213 -84 -84 -17 -119 -123 -60 -184 38 -39 79 -47 152 -28
150 39 277 110 392 220 66 64 145 173 163 226 14 39 -3 93 -38 121 -31 24 -99
27 -131 4z"/>
<path d="M15615 25766 c-97 -13 -125 -24 -149 -58 -18 -26 -21 -90 -5 -119 7
-15 5 -52 -10 -142 -31 -188 -81 -915 -67 -971 4 -16 20 -41 36 -57 23 -23 37
-29 72 -29 94 0 113 38 122 235 3 83 9 194 13 248 l6 98 26 -5 c48 -10 283
-26 383 -26 148 0 198 29 198 117 0 33 -7 50 -29 75 l-29 33 -189 6 c-243 8
-333 18 -340 36 -6 14 20 207 38 293 l10 47 97 6 c53 3 147 1 210 -4 98 -8
119 -7 148 7 45 22 68 65 61 117 -8 61 -41 87 -123 97 -95 13 -370 10 -479 -4z"/>
<path d="M12343 25715 c-35 -15 -52 -46 -73 -130 -7 -27 -21 -81 -32 -120 -45
-165 -79 -503 -109 -1089 -13 -261 -9 -387 14 -433 24 -45 87 -95 149 -118 80
-30 239 -28 333 4 218 74 370 193 447 349 38 76 43 92 46 176 10 228 -103 437
-284 526 l-69 34 40 81 c80 159 105 371 56 481 -28 65 -109 144 -186 182 -110
56 -274 84 -332 57z m224 -258 c16 -9 45 -33 63 -53 32 -37 33 -39 26 -108
-14 -167 -87 -295 -183 -324 -81 -24 -80 -25 -71 86 11 119 42 309 63 379 15
50 16 51 43 44 16 -5 42 -16 59 -24z m98 -752 c76 -26 143 -73 170 -120 14
-23 34 -77 45 -120 31 -121 15 -172 -82 -273 -112 -115 -289 -181 -417 -156
l-31 7 0 100 c0 108 16 447 26 536 l6 54 116 -6 c71 -3 137 -11 167 -22z"/>
<path d="M16555 25710 c-38 -3 -86 -14 -106 -24 -63 -30 -67 -50 -73 -336 -6
-283 -27 -452 -91 -749 -45 -207 -45 -223 -1 -267 26 -26 42 -34 70 -34 46 0
88 21 104 52 13 25 84 355 103 479 l12 78 231 3 c251 3 269 7 294 64 23 49 15
93 -23 131 l-36 36 -221 -5 -221 -5 5 174 c3 96 8 177 12 180 3 3 127 6 277 5
l271 0 31 28 c28 25 32 35 32 79 0 63 -31 99 -96 112 -51 9 -471 9 -574 -1z"/>
<path d="M19117 25700 c-43 -34 -50 -77 -51 -300 0 -283 37 -487 122 -672 146
-315 367 -436 642 -349 128 40 269 156 393 320 124 165 196 328 233 531 l16
90 19 -24 c23 -29 52 -39 199 -70 61 -14 114 -26 116 -29 3 -3 1 -31 -5 -63
-6 -33 -20 -140 -31 -239 -11 -99 -37 -278 -57 -397 -40 -243 -38 -263 21
-299 58 -36 132 -15 160 46 20 44 71 352 100 615 9 74 21 172 27 217 11 76 14
82 33 78 139 -32 317 -65 346 -65 76 0 127 80 97 152 -9 20 -26 43 -39 52 -22
15 -781 174 -875 184 -38 4 -47 0 -76 -29 l-34 -34 -30 33 c-26 27 -37 32 -78
32 -40 0 -52 -5 -79 -32 -29 -29 -34 -44 -45 -123 -26 -177 -84 -331 -173
-455 -54 -75 -180 -203 -237 -240 -58 -36 -142 -55 -207 -45 -40 6 -57 16
-112 68 -153 147 -226 420 -220 815 l3 193 -33 30 c-40 36 -105 40 -145 9z"/>
<path d="M21673 25265 c-74 -32 -85 -147 -18 -191 15 -10 107 -36 206 -59 98
-23 182 -45 186 -48 8 -9 -37 -278 -83 -496 -20 -90 -60 -239 -90 -331 -65
-201 -67 -229 -20 -276 27 -27 42 -34 74 -34 74 0 94 28 156 218 76 233 105
359 183 803 l8 46 150 -60 c91 -36 171 -62 202 -64 48 -4 55 -2 83 25 23 24
30 39 30 71 0 92 -13 101 -317 214 -217 82 -301 107 -545 162 -178 40 -163 38
-205 20z"/>
<path d="M6994 19276 c-22 -7 -81 -35 -131 -62 l-91 -48 -58 53 -58 53 -66 -4
c-82 -4 -151 -43 -197 -111 -59 -88 -55 -230 11 -370 41 -86 165 -282 233
-367 26 -34 60 -76 74 -95 l26 -33 64 25 c114 46 192 116 323 291 109 145 166
279 166 395 0 98 -57 233 -116 272 -28 18 -122 19 -180 1z"/>
<path d="M7552 17297 c-29 -15 -48 -33 -62 -62 -23 -47 -100 -359 -130 -530
-48 -268 -59 -306 -101 -352 -45 -50 -54 -76 -45 -148 6 -51 2 -61 -70 -222
-149 -333 -222 -560 -204 -638 11 -50 76 -114 117 -117 49 -2 77 2 115 18 46
21 61 51 128 259 28 88 92 252 143 365 l92 205 126 3 c114 2 127 1 134 -15 4
-10 33 -88 65 -173 32 -85 75 -193 95 -240 49 -115 183 -369 209 -398 72 -80
190 -67 253 27 41 61 33 105 -47 252 -85 155 -128 252 -207 464 -100 266 -104
280 -203 740 -29 132 -61 267 -72 300 -82 239 -200 331 -336 262z m141 -854
c6 -31 5 -33 -23 -33 -35 0 -36 7 -18 96 l12 59 11 -45 c6 -25 14 -60 18 -77z"/>
<path d="M8775 14703 c-82 -47 -144 -110 -226 -230 -130 -192 -185 -337 -177
-473 5 -92 38 -168 98 -234 41 -45 44 -46 102 -46 74 0 135 25 248 101 l85 58
40 -38 c52 -50 75 -61 127 -61 83 0 209 99 224 175 3 20 4 75 2 123 -5 107
-31 163 -151 333 -80 112 -280 330 -301 328 -6 0 -38 -16 -71 -36z"/>
<path d="M17685 15214 c-11 -3 -41 -27 -68 -52 -54 -53 -72 -102 -62 -170 9
-60 72 -127 179 -188 283 -164 355 -210 479 -306 154 -121 158 -123 209 -132
60 -11 116 8 164 55 53 52 68 94 61 167 -5 49 -11 61 -54 105 -119 122 -284
239 -583 412 -171 99 -190 107 -245 110 -33 2 -69 1 -80 -1z"/>
<path d="M16176 15043 c-19 -5 -388 -222 -621 -366 -204 -126 -243 -173 -232
-284 7 -63 34 -108 85 -144 29 -20 48 -24 106 -24 l71 0 145 91 c80 50 250
153 377 229 263 156 316 200 326 276 4 24 3 61 -2 83 -11 45 -71 112 -118 132
-31 14 -98 17 -137 7z"/>
<path d="M25365 19331 c-74 -5 -88 -11 -180 -63 -116 -65 -125 -74 -193 -188
-47 -80 -51 -93 -74 -225 l-23 -140 0 -2550 c0 -2795 -4 -2617 61 -2789 27
-72 43 -100 86 -143 86 -88 164 -141 333 -226 272 -136 113 -121 1298 -125
1140 -4 1291 1 1402 43 92 34 147 71 222 147 81 82 109 142 249 521 8 21 18
113 24 215 12 224 13 4544 0 4808 -13 282 -53 412 -158 506 -92 83 -323 181
-471 199 -94 12 -2436 21 -2576 10z m2215 -321 c339 -8 358 -10 425 -33 92
-32 165 -69 191 -99 51 -55 49 50 49 -2658 l0 -2525 -38 -100 c-89 -236 -108
-274 -155 -316 -84 -73 -17 -70 -1264 -67 l-1116 3 -143 72 c-152 75 -255 154
-277 210 -31 81 -32 155 -32 2672 0 2276 2 2547 16 2630 20 114 42 153 108
191 l51 30 915 -1 c503 0 1075 -4 1270 -9z"/>
<path d="M25570 18817 c-108 -124 -310 -406 -310 -432 0 -11 14 -40 30 -65 17
-25 60 -103 97 -175 82 -162 107 -207 155 -272 21 -29 38 -58 38 -64 0 -18 34
15 245 246 106 116 211 228 234 250 23 21 41 46 41 53 0 8 -19 38 -43 66 -24
28 -82 105 -128 171 -82 116 -242 305 -266 312 -6 2 -48 -38 -93 -90z"/>
<path d="M26429 16928 c-20 -11 -46 -38 -58 -58 -22 -40 -85 -316 -121 -530
-57 -343 -76 -412 -196 -712 -155 -385 -206 -577 -171 -644 51 -98 174 -119
254 -42 24 24 39 52 54 103 57 195 75 252 130 391 33 83 65 159 73 169 11 16
29 18 145 19 l133 1 52 -150 c60 -170 112 -291 194 -450 68 -131 96 -155 180
-155 52 0 57 2 103 49 46 45 49 51 49 100 0 42 -9 70 -51 153 -88 176 -129
276 -209 518 -70 208 -87 275 -149 585 -88 438 -115 521 -193 611 -58 66 -149
83 -219 42z m140 -950 c1 -25 -3 -28 -29 -28 -16 0 -30 4 -30 10 0 14 21 113
27 130 7 17 30 -67 32 -112z"/>
<path d="M27683 14608 c-33 -40 -110 -140 -173 -223 -62 -82 -162 -209 -222
-281 -59 -73 -108 -140 -108 -150 0 -11 35 -58 78 -105 42 -47 129 -145 192
-218 110 -128 226 -244 299 -300 l34 -25 36 40 c88 99 411 612 411 652 0 10
-24 49 -53 87 -29 39 -79 113 -112 165 -166 269 -282 430 -309 430 -8 0 -41
-33 -73 -72z"/>
</g>
</svg>
